<mxfile host="app.diagrams.net" modified="2022-02-12T18:09:16.901Z" agent="5.0 (Windows NT 10.0; Win64; x64) AppleWebKit/537.36 (KHTML, like Gecko) Chrome/98.0.4758.82 Safari/537.36" etag="3Cbn27a-Kr90auH5EOVC" version="16.5.6" type="github">
  <diagram id="Y7ju0oTZIot-IQFD6m13" name="Page-1">
    <mxGraphModel dx="2207" dy="481" grid="0" gridSize="10" guides="1" tooltips="1" connect="1" arrows="1" fold="1" page="1" pageScale="1" pageWidth="1169" pageHeight="827" background="#FFFFFF" math="0" shadow="0">
      <root>
        <mxCell id="0" />
        <mxCell id="1" parent="0" />
        <mxCell id="phteO_pkkuB3z9RRYfDH-4" value="Region" style="points=[[0,0],[0.25,0],[0.5,0],[0.75,0],[1,0],[1,0.25],[1,0.5],[1,0.75],[1,1],[0.75,1],[0.5,1],[0.25,1],[0,1],[0,0.75],[0,0.5],[0,0.25]];outlineConnect=0;gradientColor=none;html=1;whiteSpace=wrap;fontSize=12;fontStyle=0;container=1;pointerEvents=0;collapsible=0;recursiveResize=0;shape=mxgraph.aws4.group;grIcon=mxgraph.aws4.group_region;strokeColor=#147EBA;fillColor=none;verticalAlign=top;align=left;spacingLeft=30;fontColor=#147EBA;dashed=1;" vertex="1" parent="1">
          <mxGeometry x="67" y="43" width="784" height="419" as="geometry" />
        </mxCell>
        <mxCell id="phteO_pkkuB3z9RRYfDH-5" value="Availability zone" style="sketch=0;outlineConnect=0;gradientColor=none;html=1;whiteSpace=wrap;fontSize=12;fontStyle=0;shape=mxgraph.aws4.group;grIcon=mxgraph.aws4.group_availability_zone;strokeColor=#545B64;fillColor=none;verticalAlign=top;align=left;spacingLeft=30;fontColor=#545B64;dashed=1;" vertex="1" parent="phteO_pkkuB3z9RRYfDH-4">
          <mxGeometry x="25" y="107" width="336" height="269" as="geometry" />
        </mxCell>
        <mxCell id="phteO_pkkuB3z9RRYfDH-10" value="Private subnet" style="points=[[0,0],[0.25,0],[0.5,0],[0.75,0],[1,0],[1,0.25],[1,0.5],[1,0.75],[1,1],[0.75,1],[0.5,1],[0.25,1],[0,1],[0,0.75],[0,0.5],[0,0.25]];outlineConnect=0;gradientColor=none;html=1;whiteSpace=wrap;fontSize=12;fontStyle=0;container=1;pointerEvents=0;collapsible=0;recursiveResize=0;shape=mxgraph.aws4.group;grIcon=mxgraph.aws4.group_security_group;grStroke=0;strokeColor=#147EBA;fillColor=#E6F2F8;verticalAlign=top;align=left;spacingLeft=30;fontColor=#147EBA;dashed=0;" vertex="1" parent="phteO_pkkuB3z9RRYfDH-4">
          <mxGeometry x="150" y="246" width="202" height="123" as="geometry" />
        </mxCell>
        <mxCell id="phteO_pkkuB3z9RRYfDH-1" value="" style="sketch=0;outlineConnect=0;fontColor=#232F3E;gradientColor=none;fillColor=#D45B07;strokeColor=none;dashed=0;verticalLabelPosition=bottom;verticalAlign=top;align=center;html=1;fontSize=12;fontStyle=0;aspect=fixed;pointerEvents=1;shape=mxgraph.aws4.ec2_m1_mac_instance;" vertex="1" parent="phteO_pkkuB3z9RRYfDH-10">
          <mxGeometry x="15.129999999999995" y="-75" width="48" height="48" as="geometry" />
        </mxCell>
        <mxCell id="phteO_pkkuB3z9RRYfDH-2" value="" style="sketch=0;outlineConnect=0;fontColor=#232F3E;gradientColor=none;fillColor=#D45B07;strokeColor=none;dashed=0;verticalLabelPosition=bottom;verticalAlign=top;align=center;html=1;fontSize=12;fontStyle=0;aspect=fixed;pointerEvents=1;shape=mxgraph.aws4.ec2_m1_mac_instance;" vertex="1" parent="phteO_pkkuB3z9RRYfDH-4">
          <mxGeometry x="470" y="198" width="48" height="48" as="geometry" />
        </mxCell>
        <mxCell id="phteO_pkkuB3z9RRYfDH-3" value="" style="outlineConnect=0;dashed=0;verticalLabelPosition=bottom;verticalAlign=top;align=center;html=1;shape=mxgraph.aws3.s3;fillColor=#E05243;gradientColor=none;" vertex="1" parent="phteO_pkkuB3z9RRYfDH-4">
          <mxGeometry x="50" y="270" width="72" height="59" as="geometry" />
        </mxCell>
        <mxCell id="phteO_pkkuB3z9RRYfDH-8" value="" style="outlineConnect=0;dashed=0;verticalLabelPosition=bottom;verticalAlign=top;align=center;html=1;shape=mxgraph.aws3.internet_gateway;fillColor=#F58536;gradientColor=none;" vertex="1" parent="phteO_pkkuB3z9RRYfDH-4">
          <mxGeometry x="230" y="80" width="69" height="72" as="geometry" />
        </mxCell>
        <mxCell id="phteO_pkkuB3z9RRYfDH-9" value="" style="outlineConnect=0;dashed=0;verticalLabelPosition=bottom;verticalAlign=top;align=center;html=1;shape=mxgraph.aws3.internet_gateway;fillColor=#F58536;gradientColor=none;" vertex="1" parent="phteO_pkkuB3z9RRYfDH-4">
          <mxGeometry x="560" y="60" width="69" height="72" as="geometry" />
        </mxCell>
        <mxCell id="phteO_pkkuB3z9RRYfDH-16" value="Availability zone" style="sketch=0;outlineConnect=0;gradientColor=none;html=1;whiteSpace=wrap;fontSize=12;fontStyle=0;shape=mxgraph.aws4.group;grIcon=mxgraph.aws4.group_availability_zone;strokeColor=#545B64;fillColor=none;verticalAlign=top;align=left;spacingLeft=30;fontColor=#545B64;dashed=1;" vertex="1" parent="phteO_pkkuB3z9RRYfDH-4">
          <mxGeometry x="377" y="107" width="331" height="266" as="geometry" />
        </mxCell>
        <mxCell id="phteO_pkkuB3z9RRYfDH-15" value="Public subnet" style="points=[[0,0],[0.25,0],[0.5,0],[0.75,0],[1,0],[1,0.25],[1,0.5],[1,0.75],[1,1],[0.75,1],[0.5,1],[0.25,1],[0,1],[0,0.75],[0,0.5],[0,0.25]];outlineConnect=0;gradientColor=none;html=1;whiteSpace=wrap;fontSize=12;fontStyle=0;container=1;pointerEvents=0;collapsible=0;recursiveResize=0;shape=mxgraph.aws4.group;grIcon=mxgraph.aws4.group_security_group;grStroke=0;strokeColor=#248814;fillColor=#E9F3E6;verticalAlign=top;align=left;spacingLeft=30;fontColor=#248814;dashed=0;" vertex="1" parent="phteO_pkkuB3z9RRYfDH-4">
          <mxGeometry x="497" y="259" width="200" height="95" as="geometry" />
        </mxCell>
        <mxCell id="phteO_pkkuB3z9RRYfDH-7" value="" style="outlineConnect=0;dashed=0;verticalLabelPosition=bottom;verticalAlign=top;align=center;html=1;shape=mxgraph.aws3.classic_load_balancer;fillColor=#F58536;gradientColor=none;" vertex="1" parent="1">
          <mxGeometry x="379" y="28" width="69" height="72" as="geometry" />
        </mxCell>
        <mxCell id="phteO_pkkuB3z9RRYfDH-19" style="edgeStyle=orthogonalEdgeStyle;rounded=0;orthogonalLoop=1;jettySize=auto;html=1;exitX=0.5;exitY=0.2;exitDx=0;exitDy=0;exitPerimeter=0;" edge="1" parent="1" source="phteO_pkkuB3z9RRYfDH-18">
          <mxGeometry relative="1" as="geometry">
            <mxPoint x="373" y="82" as="targetPoint" />
            <Array as="points">
              <mxPoint x="-22" y="82" />
            </Array>
          </mxGeometry>
        </mxCell>
        <mxCell id="phteO_pkkuB3z9RRYfDH-20" value="request" style="edgeLabel;html=1;align=center;verticalAlign=middle;resizable=0;points=[];" vertex="1" connectable="0" parent="phteO_pkkuB3z9RRYfDH-19">
          <mxGeometry x="0.6654" y="-3" relative="1" as="geometry">
            <mxPoint as="offset" />
          </mxGeometry>
        </mxCell>
        <mxCell id="phteO_pkkuB3z9RRYfDH-18" value="" style="outlineConnect=0;dashed=0;verticalLabelPosition=bottom;verticalAlign=top;align=center;html=1;shape=mxgraph.aws3.users;fillColor=#D2D3D3;gradientColor=none;strokeColor=default;" vertex="1" parent="1">
          <mxGeometry x="-55" y="82" width="66" height="63" as="geometry" />
        </mxCell>
      </root>
    </mxGraphModel>
  </diagram>
</mxfile>
